<?xml version="1.0" standalone="no"?>
<!DOCTYPE svg PUBLIC "-//W3C//DTD SVG 20010904//EN"
 "http://www.w3.org/TR/2001/REC-SVG-20010904/DTD/svg10.dtd">
<svg version="1.0" xmlns="http://www.w3.org/2000/svg"
 width="1250.000000pt" height="1324.000000pt" viewBox="0 0 1250.000000 1324.000000"
 preserveAspectRatio="xMidYMid meet">

<g transform="translate(0.000000,1324.000000) scale(0.100000,-0.100000)"
fill="#000000" stroke="none">
<path d="M5985 13013 c-1052 -56 -2014 -405 -2853 -1038 -382 -287 -775 -680
-1058 -1055 -617 -821 -975 -1779 -1044 -2798 -7 -102 -10 -1447 -10 -4008 l0
-3854 5235 0 5235 0 0 3813 c0 2475 -4 3877 -10 3997 -63 1126 -480 2195
-1192 3051 -568 684 -1275 1198 -2093 1522 -685 272 -1498 408 -2210 370z
m615 -3139 c269 -31 569 -104 803 -196 710 -279 1286 -811 1627 -1502 127
-258 198 -462 254 -737 64 -309 60 -123 63 -2699 l3 -2345 -799 -799 -800
-800 6 2975 c4 2123 2 3025 -6 3154 -31 512 -166 922 -436 1330 -104 157 -190
262 -334 405 -192 190 -381 330 -621 458 -495 265 -1134 364 -1685 262 -60
-12 -119 -23 -130 -26 -32 -8 164 117 288 184 527 286 1157 406 1767 336z
m926 -4745 c119 -132 213 -244 208 -248 -5 -4 -75 -67 -156 -139 -81 -73 -151
-132 -157 -132 -11 0 -53 50 -49 60 2 4 57 55 123 114 66 60 121 111 122 115
2 3 -26 38 -61 76 l-64 70 -28 -26 c-16 -14 -72 -64 -125 -112 -53 -48 -101
-87 -106 -87 -5 0 -19 13 -31 30 l-22 29 47 44 c27 24 82 74 123 111 41 37 76
71 78 75 3 8 -116 141 -126 141 -14 0 -277 -243 -275 -254 1 -6 8 -29 14 -51
32 -107 -37 -200 -162 -220 -27 -4 -49 -19 -85 -58 l-49 -52 110 -5 c124 -6
164 -21 195 -73 13 -20 20 -50 20 -80 0 -108 -57 -156 -193 -164 -70 -4 -191
8 -204 21 -2 2 0 19 5 37 7 26 13 33 28 31 49 -8 196 -14 218 -8 57 14 83 77
51 123 -22 31 -74 43 -185 43 l-95 0 -22 35 c-28 43 -28 47 -2 71 12 10 35 36
52 57 l30 39 -32 25 c-43 34 -61 73 -61 133 0 105 60 167 168 177 34 3 74 1
92 -6 36 -12 14 -28 275 208 55 49 103 90 107 91 4 0 104 -108 224 -241z"/>
<path d="M6813 5003 c-12 -2 -33 -16 -47 -30 -39 -39 -37 -105 5 -144 52 -49
148 -38 182 21 21 35 21 62 1 101 -23 45 -76 65 -141 52z"/>
</g>
</svg>
